<svg width="20" height="48" viewBox="0 0 20 48" fill="none" xmlns="http://www.w3.org/2000/svg">
  <path d="M11.1328 34C11.1328 33.4271 10.9245 33.1016 10.5078 33.0234C10.3776 32.9974 10.2474 32.9844 10.1172 32.9844H8.04688V11.5781H11.1328V10.5625H1.5625V11.5781H4.6875V32.9844H1.5625V34H11.1328Z" fill="white" />
  <path d="M10.7598 34V33.2383H8.41602V25.9434H10.6719L15.2422 34H19.959C19.959 33.5508 19.8223 33.3066 19.5488 33.2676C19.4512 33.248 19.3438 33.2383 19.2266 33.2383H18.4062L13.748 25.6504C15.7402 25.1426 17.0293 24.1074 17.6152 22.5449C17.791 22.0371 17.8789 21.5195 17.8789 20.9922C17.8789 19.5469 17.2441 18.3848 15.9746 17.5059C14.9004 16.7832 13.5918 16.4219 12.0488 16.4219H2.9375V17.1836H5.28125V33.2383H2.9375V34H10.7598ZM10.8184 17.1836C12.459 17.1836 13.5625 17.9062 14.1289 19.3516C14.3438 19.8984 14.4512 20.4746 14.4512 21.0801C14.4512 22.5449 13.9727 23.6582 13.0156 24.4199C12.4297 24.8691 11.7461 25.0938 10.9648 25.0938H8.41602V17.1836H10.8184Z" fill="white" />
</svg>